<mxfile host="Electron" modified="2024-06-17T17:24:45.988Z" agent="Mozilla/5.0 (Windows NT 10.0; Win64; x64) AppleWebKit/537.36 (KHTML, like Gecko) draw.io/24.5.3 Chrome/124.0.6367.207 Electron/30.0.6 Safari/537.36" etag="lObFTEoVq2A-5q5LEYZj" version="24.5.3" type="device">
  <diagram name="kwirth-arch" id="pIbIGLUXCUtjSl2B38el">
    <mxGraphModel dx="1434" dy="836" grid="1" gridSize="10" guides="1" tooltips="1" connect="1" arrows="1" fold="1" page="1" pageScale="1" pageWidth="1100" pageHeight="850" math="0" shadow="0">
      <root>
        <mxCell id="0" />
        <mxCell id="1" parent="0" />
        <mxCell id="6ZEIuo7x0CxOLSnOhvqb-4" value="Kubernetes" style="rounded=1;whiteSpace=wrap;html=1;arcSize=2;fillColor=none;dashed=1;labelPosition=center;verticalLabelPosition=bottom;align=left;verticalAlign=top;" parent="1" vertex="1">
          <mxGeometry x="230" y="165" width="770" height="520" as="geometry" />
        </mxCell>
        <mxCell id="6ZEIuo7x0CxOLSnOhvqb-25" value="application" style="rounded=1;whiteSpace=wrap;html=1;fontSize=18;arcSize=9;" parent="1" vertex="1">
          <mxGeometry x="690" y="505" width="210.84" height="120" as="geometry" />
        </mxCell>
        <mxCell id="6ZEIuo7x0CxOLSnOhvqb-3" value="" style="group" parent="1" vertex="1" connectable="0">
          <mxGeometry x="100" y="444" width="85" height="80" as="geometry" />
        </mxCell>
        <mxCell id="6ZEIuo7x0CxOLSnOhvqb-1" value="" style="image;aspect=fixed;html=1;points=[];align=center;fontSize=12;image=img/lib/azure2/general/Browser.svg;" parent="6ZEIuo7x0CxOLSnOhvqb-3" vertex="1">
          <mxGeometry x="20" width="65" height="52" as="geometry" />
        </mxCell>
        <mxCell id="6ZEIuo7x0CxOLSnOhvqb-2" value="" style="verticalLabelPosition=bottom;html=1;verticalAlign=top;align=center;strokeColor=#b85450;fillColor=#f8cecc;shape=mxgraph.azure.user;" parent="6ZEIuo7x0CxOLSnOhvqb-3" vertex="1">
          <mxGeometry y="30" width="47.5" height="50" as="geometry" />
        </mxCell>
        <mxCell id="6ZEIuo7x0CxOLSnOhvqb-14" style="edgeStyle=orthogonalEdgeStyle;rounded=0;orthogonalLoop=1;jettySize=auto;html=1;exitX=0.995;exitY=0.63;exitDx=0;exitDy=0;exitPerimeter=0;entryX=0;entryY=0.75;entryDx=0;entryDy=0;" parent="1" source="6ZEIuo7x0CxOLSnOhvqb-18" target="6ZEIuo7x0CxOLSnOhvqb-13" edge="1">
          <mxGeometry relative="1" as="geometry" />
        </mxCell>
        <mxCell id="6ZEIuo7x0CxOLSnOhvqb-5" value="" style="aspect=fixed;sketch=0;html=1;dashed=0;whitespace=wrap;verticalLabelPosition=bottom;verticalAlign=top;fillColor=#2875E2;strokeColor=#ffffff;points=[[0.005,0.63,0],[0.1,0.2,0],[0.9,0.2,0],[0.5,0,0],[0.995,0.63,0],[0.72,0.99,0],[0.5,1,0],[0.28,0.99,0]];shape=mxgraph.kubernetes.icon2;kubernetesLabel=1;prIcon=svc" parent="1" vertex="1">
          <mxGeometry x="310" y="375" width="50" height="48" as="geometry" />
        </mxCell>
        <mxCell id="6ZEIuo7x0CxOLSnOhvqb-7" value="View&lt;div&gt;configurations&lt;/div&gt;" style="aspect=fixed;sketch=0;html=1;dashed=0;whitespace=wrap;verticalLabelPosition=top;verticalAlign=bottom;fillColor=#2875E2;strokeColor=#ffffff;points=[[0.005,0.63,0],[0.1,0.2,0],[0.9,0.2,0],[0.5,0,0],[0.995,0.63,0],[0.72,0.99,0],[0.5,1,0],[0.28,0.99,0]];shape=mxgraph.kubernetes.icon2;kubernetesLabel=1;prIcon=cm;labelPosition=center;align=center;" parent="1" vertex="1">
          <mxGeometry x="560" y="215" width="50" height="48" as="geometry" />
        </mxCell>
        <mxCell id="6ZEIuo7x0CxOLSnOhvqb-8" value="Users" style="aspect=fixed;sketch=0;html=1;dashed=0;whitespace=wrap;verticalLabelPosition=top;verticalAlign=bottom;fillColor=#2875E2;strokeColor=#ffffff;points=[[0.005,0.63,0],[0.1,0.2,0],[0.9,0.2,0],[0.5,0,0],[0.995,0.63,0],[0.72,0.99,0],[0.5,1,0],[0.28,0.99,0]];shape=mxgraph.kubernetes.icon2;kubernetesLabel=1;prIcon=secret;labelPosition=center;align=center;" parent="1" vertex="1">
          <mxGeometry x="470" y="215" width="50" height="48" as="geometry" />
        </mxCell>
        <mxCell id="6ZEIuo7x0CxOLSnOhvqb-9" style="edgeStyle=orthogonalEdgeStyle;rounded=0;orthogonalLoop=1;jettySize=auto;html=1;entryX=0.005;entryY=0.63;entryDx=0;entryDy=0;exitX=1;exitY=0.5;exitDx=0;exitDy=0;exitPerimeter=0;entryPerimeter=0;" parent="1" source="6ZEIuo7x0CxOLSnOhvqb-1" target="6ZEIuo7x0CxOLSnOhvqb-5" edge="1">
          <mxGeometry relative="1" as="geometry" />
        </mxCell>
        <mxCell id="6ZEIuo7x0CxOLSnOhvqb-10" style="edgeStyle=orthogonalEdgeStyle;rounded=0;orthogonalLoop=1;jettySize=auto;html=1;entryX=0;entryY=0.25;entryDx=0;entryDy=0;exitX=0.995;exitY=0.63;exitDx=0;exitDy=0;exitPerimeter=0;" parent="1" source="6ZEIuo7x0CxOLSnOhvqb-16" target="6ZEIuo7x0CxOLSnOhvqb-13" edge="1">
          <mxGeometry relative="1" as="geometry" />
        </mxCell>
        <mxCell id="6ZEIuo7x0CxOLSnOhvqb-11" style="edgeStyle=orthogonalEdgeStyle;rounded=0;orthogonalLoop=1;jettySize=auto;html=1;exitX=0.25;exitY=0;exitDx=0;exitDy=0;entryX=0.5;entryY=1;entryDx=0;entryDy=0;entryPerimeter=0;" parent="1" source="6ZEIuo7x0CxOLSnOhvqb-13" target="6ZEIuo7x0CxOLSnOhvqb-8" edge="1">
          <mxGeometry relative="1" as="geometry" />
        </mxCell>
        <mxCell id="6ZEIuo7x0CxOLSnOhvqb-12" style="edgeStyle=orthogonalEdgeStyle;rounded=0;orthogonalLoop=1;jettySize=auto;html=1;exitX=0.75;exitY=0;exitDx=0;exitDy=0;entryX=0.5;entryY=1;entryDx=0;entryDy=0;entryPerimeter=0;" parent="1" source="6ZEIuo7x0CxOLSnOhvqb-13" target="6ZEIuo7x0CxOLSnOhvqb-7" edge="1">
          <mxGeometry relative="1" as="geometry" />
        </mxCell>
        <mxCell id="6ZEIuo7x0CxOLSnOhvqb-17" value="front" style="edgeStyle=orthogonalEdgeStyle;rounded=0;orthogonalLoop=1;jettySize=auto;html=1;entryX=1;entryY=0.5;entryDx=0;entryDy=0;exitX=0.995;exitY=0.63;exitDx=0;exitDy=0;exitPerimeter=0;entryPerimeter=0;" parent="1" source="6ZEIuo7x0CxOLSnOhvqb-5" target="6ZEIuo7x0CxOLSnOhvqb-16" edge="1">
          <mxGeometry x="0.489" y="13" relative="1" as="geometry">
            <mxPoint x="360" y="405" as="sourcePoint" />
            <mxPoint x="460" y="398" as="targetPoint" />
            <mxPoint as="offset" />
          </mxGeometry>
        </mxCell>
        <mxCell id="6ZEIuo7x0CxOLSnOhvqb-16" value="" style="shape=or;whiteSpace=wrap;html=1;rotation=-180;fillColor=#d5e8d4;strokeColor=#82b366;" parent="1" vertex="1">
          <mxGeometry x="450" y="368" width="10" height="20" as="geometry" />
        </mxCell>
        <mxCell id="6ZEIuo7x0CxOLSnOhvqb-19" value="API" style="edgeStyle=orthogonalEdgeStyle;rounded=0;orthogonalLoop=1;jettySize=auto;html=1;exitX=0.995;exitY=0.63;exitDx=0;exitDy=0;exitPerimeter=0;entryX=1;entryY=0.5;entryDx=0;entryDy=0;entryPerimeter=0;" parent="1" source="6ZEIuo7x0CxOLSnOhvqb-5" target="6ZEIuo7x0CxOLSnOhvqb-18" edge="1">
          <mxGeometry x="0.45" y="-11" relative="1" as="geometry">
            <mxPoint x="360" y="405" as="sourcePoint" />
            <mxPoint x="460" y="443" as="targetPoint" />
            <mxPoint as="offset" />
          </mxGeometry>
        </mxCell>
        <mxCell id="6ZEIuo7x0CxOLSnOhvqb-18" value="" style="shape=or;whiteSpace=wrap;html=1;rotation=-180;fillColor=#d5e8d4;strokeColor=#82b366;" parent="1" vertex="1">
          <mxGeometry x="450" y="414" width="10" height="20" as="geometry" />
        </mxCell>
        <mxCell id="6ZEIuo7x0CxOLSnOhvqb-13" value="Kwirth" style="rounded=1;whiteSpace=wrap;html=1;fontSize=18;" parent="1" vertex="1">
          <mxGeometry x="460" y="354" width="160" height="90" as="geometry" />
        </mxCell>
        <mxCell id="6ZEIuo7x0CxOLSnOhvqb-6" value="" style="aspect=fixed;sketch=0;html=1;dashed=0;whitespace=wrap;verticalLabelPosition=bottom;verticalAlign=top;fillColor=#2875E2;strokeColor=#ffffff;points=[[0.005,0.63,0],[0.1,0.2,0],[0.9,0.2,0],[0.5,0,0],[0.995,0.63,0],[0.72,0.99,0],[0.5,1,0],[0.28,0.99,0]];shape=mxgraph.kubernetes.icon2;kubernetesLabel=1;prIcon=pod" parent="1" vertex="1">
          <mxGeometry x="600" y="423.00000000000006" width="30" height="28.8" as="geometry" />
        </mxCell>
        <mxCell id="6ZEIuo7x0CxOLSnOhvqb-20" value="" style="aspect=fixed;sketch=0;html=1;dashed=0;whitespace=wrap;verticalLabelPosition=bottom;verticalAlign=top;fillColor=#2875E2;strokeColor=#ffffff;points=[[0.005,0.63,0],[0.1,0.2,0],[0.9,0.2,0],[0.5,0,0],[0.995,0.63,0],[0.72,0.99,0],[0.5,1,0],[0.28,0.99,0]];shape=mxgraph.kubernetes.icon2;kubernetesLabel=1;prIcon=pod" parent="1" vertex="1">
          <mxGeometry x="840" y="255" width="41.67" height="40" as="geometry" />
        </mxCell>
        <mxCell id="6ZEIuo7x0CxOLSnOhvqb-22" value="" style="aspect=fixed;sketch=0;html=1;dashed=0;whitespace=wrap;verticalLabelPosition=bottom;verticalAlign=top;fillColor=#2875E2;strokeColor=#ffffff;points=[[0.005,0.63,0],[0.1,0.2,0],[0.9,0.2,0],[0.5,0,0],[0.995,0.63,0],[0.72,0.99,0],[0.5,1,0],[0.28,0.99,0]];shape=mxgraph.kubernetes.icon2;kubernetesLabel=1;prIcon=pod" parent="1" vertex="1">
          <mxGeometry x="870" y="328" width="41.67" height="40" as="geometry" />
        </mxCell>
        <mxCell id="6ZEIuo7x0CxOLSnOhvqb-23" value="" style="aspect=fixed;sketch=0;html=1;dashed=0;whitespace=wrap;verticalLabelPosition=bottom;verticalAlign=top;fillColor=#2875E2;strokeColor=#ffffff;points=[[0.005,0.63,0],[0.1,0.2,0],[0.9,0.2,0],[0.5,0,0],[0.995,0.63,0],[0.72,0.99,0],[0.5,1,0],[0.28,0.99,0]];shape=mxgraph.kubernetes.icon2;kubernetesLabel=1;prIcon=pod" parent="1" vertex="1">
          <mxGeometry x="720" y="515" width="41.67" height="40" as="geometry" />
        </mxCell>
        <mxCell id="6ZEIuo7x0CxOLSnOhvqb-24" value="" style="aspect=fixed;sketch=0;html=1;dashed=0;whitespace=wrap;verticalLabelPosition=bottom;verticalAlign=top;fillColor=#2875E2;strokeColor=#ffffff;points=[[0.005,0.63,0],[0.1,0.2,0],[0.9,0.2,0],[0.5,0,0],[0.995,0.63,0],[0.72,0.99,0],[0.5,1,0],[0.28,0.99,0]];shape=mxgraph.kubernetes.icon2;kubernetesLabel=1;prIcon=ns" parent="1" vertex="1">
          <mxGeometry x="865.8399999999999" y="595" width="50" height="48" as="geometry" />
        </mxCell>
        <mxCell id="6ZEIuo7x0CxOLSnOhvqb-26" value="" style="aspect=fixed;sketch=0;html=1;dashed=0;whitespace=wrap;verticalLabelPosition=bottom;verticalAlign=top;fillColor=#2875E2;strokeColor=#ffffff;points=[[0.005,0.63,0],[0.1,0.2,0],[0.9,0.2,0],[0.5,0,0],[0.995,0.63,0],[0.72,0.99,0],[0.5,1,0],[0.28,0.99,0]];shape=mxgraph.kubernetes.icon2;kubernetesLabel=1;prIcon=pod" parent="1" vertex="1">
          <mxGeometry x="824.17" y="575" width="41.67" height="40" as="geometry" />
        </mxCell>
        <mxCell id="6ZEIuo7x0CxOLSnOhvqb-27" value="" style="aspect=fixed;sketch=0;html=1;dashed=0;whitespace=wrap;verticalLabelPosition=bottom;verticalAlign=top;fillColor=#2875E2;strokeColor=#ffffff;points=[[0.005,0.63,0],[0.1,0.2,0],[0.9,0.2,0],[0.5,0,0],[0.995,0.63,0],[0.72,0.99,0],[0.5,1,0],[0.28,0.99,0]];shape=mxgraph.kubernetes.icon2;kubernetesLabel=1;prIcon=pod" parent="1" vertex="1">
          <mxGeometry x="774.59" y="575" width="41.67" height="40" as="geometry" />
        </mxCell>
        <mxCell id="6ZEIuo7x0CxOLSnOhvqb-28" value="" style="aspect=fixed;sketch=0;html=1;dashed=0;whitespace=wrap;verticalLabelPosition=bottom;verticalAlign=top;fillColor=#2875E2;strokeColor=#ffffff;points=[[0.005,0.63,0],[0.1,0.2,0],[0.9,0.2,0],[0.5,0,0],[0.995,0.63,0],[0.72,0.99,0],[0.5,1,0],[0.28,0.99,0]];shape=mxgraph.kubernetes.icon2;kubernetesLabel=1;prIcon=pod" parent="1" vertex="1">
          <mxGeometry x="830" y="515" width="41.67" height="40" as="geometry" />
        </mxCell>
        <mxCell id="6ZEIuo7x0CxOLSnOhvqb-29" value="Watch logs" style="rounded=0;orthogonalLoop=1;jettySize=auto;html=1;entryX=0.5;entryY=0;entryDx=0;entryDy=0;exitX=1;exitY=0.5;exitDx=0;exitDy=0;endArrow=none;endFill=0;startArrow=classic;startFill=1;labelBackgroundColor=none;" parent="1" source="6ZEIuo7x0CxOLSnOhvqb-13" target="6ZEIuo7x0CxOLSnOhvqb-25" edge="1">
          <mxGeometry relative="1" as="geometry" />
        </mxCell>
        <mxCell id="6ZEIuo7x0CxOLSnOhvqb-30" value="Watch logs" style="rounded=0;orthogonalLoop=1;jettySize=auto;html=1;entryX=0.005;entryY=0.63;entryDx=0;entryDy=0;exitX=1;exitY=0.5;exitDx=0;exitDy=0;entryPerimeter=0;startArrow=classic;startFill=1;endArrow=none;endFill=0;labelBackgroundColor=none;" parent="1" source="6ZEIuo7x0CxOLSnOhvqb-13" target="6ZEIuo7x0CxOLSnOhvqb-20" edge="1">
          <mxGeometry relative="1" as="geometry">
            <mxPoint x="630" y="409" as="sourcePoint" />
            <mxPoint x="805" y="515" as="targetPoint" />
          </mxGeometry>
        </mxCell>
        <mxCell id="6ZEIuo7x0CxOLSnOhvqb-31" value="Watch logs" style="rounded=0;orthogonalLoop=1;jettySize=auto;html=1;entryX=0.005;entryY=0.63;entryDx=0;entryDy=0;exitX=1;exitY=0.5;exitDx=0;exitDy=0;entryPerimeter=0;endArrow=none;endFill=0;startArrow=classic;startFill=1;labelBackgroundColor=none;horizontal=1;" parent="1" source="6ZEIuo7x0CxOLSnOhvqb-13" target="6ZEIuo7x0CxOLSnOhvqb-22" edge="1">
          <mxGeometry relative="1" as="geometry">
            <mxPoint x="630" y="409" as="sourcePoint" />
            <mxPoint x="820" y="310" as="targetPoint" />
          </mxGeometry>
        </mxCell>
      </root>
    </mxGraphModel>
  </diagram>
</mxfile>
